<svg viewBox="0 0 512 512" xmlns="http://www.w3.org/2000/svg">
  <!-- Fundo circular -->
  <circle cx="256" cy="256" r="240" fill="#0D6EFD" />
  <circle cx="256" cy="256" r="220" fill="#FFFFFF" />
  <circle cx="256" cy="256" r="210" fill="#0D6EFD" />
  
  <!-- Ãrvore estilizada -->
  <path d="M256 90 L320 190 L280 190 L330 270 L270 270 L310 350 L200 350 L240 270 L180 270 L230 190 L190 190 Z" fill="#FFFFFF" />
  
  <!-- Texto SISMAD -->
  <path d="M140 410 Q150 395 160 410 Q170 425 180 410 L180 400 L140 400 Q135 380 165 380 Q185 380 185 400 L185 410 Q175 430 165 410 Q155 390 140 410 Z" fill="#FFFFFF" />
  <path d="M190 410 L190 380 L195 380 L220 400 L220 380 L225 380 L225 410 L220 410 L195 390 L195 410 Z" fill="#FFFFFF" />
  <path d="M230 410 Q240 395 250 410 Q260 425 270 410 L270 400 L230 400 Q225 380 255 380 Q275 380 275 400 L275 410 Q265 430 255 410 Q245 390 230 410 Z" fill="#FFFFFF" />
  <path d="M280 410 L280 380 L320 380 L320 385 L285 385 L285 393 L315 393 L315 398 L285 398 L285 405 L320 405 L320 410 Z" fill="#FFFFFF" />
  <path d="M325 410 L325 380 L330 380 L355 400 L355 380 L360 380 L360 410 L355 410 L330 390 L330 410 Z" fill="#FFFFFF" />
</svg> 